# xmcd CD database file
#
# Track frame offsets:
#	150
#	13215
#	31865
#	46375
#	58625
#	71900
#	83900
#	105695
#	125960
#	146225
#	161480
#	184335
#
# Disc length: 2627 seconds
#
# Revision: 0
# Processed by: cddbd v1.5.1PL0 Copyright (c) Steve Scherf et al.
# Submitted via: CDex 1.50
#
DISCID=b30a410c
DTITLE=Cachao y su Orquesta - (E.U.A. III)
DYEAR=1970
DGENRE=Salsa
TTITLE0=Juan Pescao
TTITLE1=Siboney
TTITLE2=Redencion
TTITLE3=La Florista
TTITLE4=La Bayamesa
TTITLE5=Marta
TTITLE6=A la Loma de Belen
TTITLE7=Tres Lindas Cubanas
TTITLE8=El Bombin de Perucho
TTITLE9=Ogueremi China
TTITLE10=Mambo
TTITLE11=Tunas se Quemo
EXTD=YEAR: 1970
EXTT0=
EXTT1=
EXTT2=
EXTT3=
EXTT4=
EXTT5=
EXTT6=
EXTT7=
EXTT8=
EXTT9=
EXTT10=
EXTT11=
PLAYORDER=
